<svg id="Layer_2" data-name="Layer 2" xmlns="http://www.w3.org/2000/svg" viewBox="0 0 48 48"><path d="M0,11.92q.08,8.69.16,17.39l3.77-1.95V15.67L22,24.86V43.09L6.45,35l11.33-5.84a1.62,1.62,0,0,0,.32-2.37,2.16,2.16,0,0,0-2.68-.41L1.57,33.48a1.87,1.87,0,0,0-1,.89A1.68,1.68,0,0,0,.81,36L24.34,48l23.4-11.78A2.08,2.08,0,0,0,48,35a2.3,2.3,0,0,0-1-1.44l-13.43-7a2.13,2.13,0,0,0-2.09.05A1.62,1.62,0,0,0,31,28.75l11.28,6.36-15.84,8-.21-18L44.43,15.9V27.69L47.84,30q.09-9,.16-18.08l-17.47-9c0,1.22,0,2.44,0,3.67l11.75,6.07L24.45,21.93,6,12.84,22,4.54l.06,11.69A2.15,2.15,0,0,0,24,17.48a2.23,2.23,0,0,0,2.1-1.07Q26,8.7,26,1a2,2,0,0,0-.84-.79,3.81,3.81,0,0,0-2.94.37C20.22,1.47,11.63,5.83,0,11.92Z"/></svg>